<svg width="127" height="31" viewBox="0 0 127 31" fill="none" xmlns="http://www.w3.org/2000/svg">
<g clip-path="url(#clip0_63_406)">
<path d="M30.8766 15.5222C30.8761 17.5599 30.4748 19.5775 29.6956 21.4592C28.9164 23.3408 27.7747 25.0496 26.336 26.4874C24.8972 27.9252 23.1898 29.0637 21.3116 29.8377C19.4334 30.6117 17.4214 31.0058 15.391 30.9975C6.7144 30.972 -0.0521638 23.8513 -0.00136379 15.3998C0.0494362 7.01804 6.83293 -0.0381559 15.5113 -0.000767624C19.599 0.0154304 23.5133 1.65933 26.3943 4.56987C29.2752 7.4804 30.8874 11.4196 30.8766 15.5222V15.5222ZM10.6937 15.8825V22.3133C10.6886 22.3953 10.6886 22.4776 10.6937 22.5597C10.6968 22.5969 10.7074 22.6331 10.725 22.666C10.7426 22.6989 10.7668 22.7278 10.7961 22.751C10.8253 22.7741 10.859 22.7909 10.895 22.8004C10.931 22.8099 10.9685 22.8118 11.0053 22.8061C11.0868 22.7947 11.1642 22.7632 11.2305 22.7143L12.7274 21.8646L22.5234 16.2445C22.5965 16.2071 22.6662 16.1633 22.7316 16.1136C22.7684 16.0866 22.7983 16.0513 22.8189 16.0106C22.8395 15.9698 22.8502 15.9248 22.8502 15.8791C22.8502 15.8334 22.8395 15.7883 22.8189 15.7476C22.7983 15.7068 22.7684 15.6715 22.7316 15.6445C22.6858 15.6104 22.637 15.5802 22.586 15.5545L11.344 9.09479C11.2677 9.04632 11.1879 9.00371 11.1052 8.96733C11.0631 8.94661 11.0166 8.93678 10.9697 8.93874C10.9229 8.94069 10.8773 8.95436 10.8371 8.97852C10.7969 9.00267 10.7633 9.03653 10.7394 9.07702C10.7156 9.11751 10.7022 9.16334 10.7005 9.21035C10.6954 9.29241 10.6954 9.37471 10.7005 9.45678L10.6937 15.8825Z" fill="#3B8BEF"/>
<path d="M45.1358 16.0345C45.0427 16.1364 44.9902 16.1942 44.9394 16.2537C44.1424 17.1601 43.346 18.0716 42.5501 18.9882C42.407 19.1584 42.2495 19.3159 42.0794 19.4589C42.0355 19.5033 41.9832 19.5383 41.9256 19.562C41.868 19.5857 41.8062 19.5975 41.744 19.5967C41.6817 19.5959 41.6203 19.5825 41.5633 19.5574C41.5063 19.5323 41.4549 19.4959 41.4122 19.4504C41.3004 19.3538 41.1962 19.2487 41.1006 19.136C40.2585 18.1764 39.418 17.2133 38.5792 16.2469C38.5267 16.1874 38.4895 16.111 38.3947 16.077C38.374 16.1469 38.3683 16.2205 38.3777 16.2928C38.3777 18.0489 38.3777 19.805 38.3777 21.5612C38.3777 22.0846 38.2795 22.1849 37.763 22.1866H35.7412C35.6752 22.19 35.6091 22.19 35.5431 22.1866C35.4851 22.1867 35.4278 22.1749 35.3746 22.1518C35.3214 22.1288 35.2734 22.095 35.2337 22.0527C35.1941 22.0103 35.1635 21.9602 35.1439 21.9055C35.1242 21.8507 35.116 21.7925 35.1197 21.7345C35.1197 21.6767 35.1197 21.6189 35.1197 21.5646V9.66827C35.1106 9.50299 35.1272 9.33729 35.1689 9.17712C35.1815 9.10944 35.2107 9.04595 35.2537 8.9923C35.2968 8.93865 35.3523 8.89649 35.4155 8.86959C35.4787 8.84268 35.5475 8.83186 35.6158 8.83807C35.6842 8.84429 35.7499 8.86735 35.8072 8.90521C35.9929 9.01215 36.158 9.15141 36.2949 9.31648C36.7634 9.82519 37.2313 10.335 37.6987 10.846C38.9755 12.2328 40.2517 13.6207 41.5273 15.0097C41.5764 15.0641 41.6323 15.1151 41.6763 15.1796C41.7475 15.2714 41.805 15.2578 41.8694 15.1796C41.9151 15.1219 41.9693 15.0692 42.0184 15.0097L47.1086 9.45754C47.2305 9.32328 47.3592 9.19582 47.4896 9.07006C47.5657 8.99663 47.6554 8.93889 47.7537 8.90012C47.8088 8.87126 47.8697 8.85521 47.9318 8.85314C47.994 8.85108 48.0558 8.86305 48.1126 8.88818C48.1695 8.9133 48.2201 8.95094 48.2605 8.9983C48.301 9.04567 48.3303 9.10156 48.3464 9.16183C48.3713 9.23179 48.3856 9.30512 48.3887 9.37936C48.3887 9.51872 48.4023 9.65977 48.4023 9.79913V21.5017C48.4034 21.6248 48.3977 21.7479 48.3853 21.8705C48.3809 21.9493 48.3493 22.0242 48.2958 22.0822C48.2423 22.1402 48.1704 22.1777 48.0924 22.1883C48.0115 22.2044 47.9293 22.2129 47.8468 22.2138H45.72C45.6376 22.2135 45.5554 22.2055 45.4745 22.19C45.3924 22.1789 45.3162 22.1412 45.2575 22.0826C45.1988 22.0239 45.1608 21.9477 45.1494 21.8654C45.1308 21.7685 45.124 21.6698 45.129 21.5714V16.0345H45.1358Z" fill="black"/>
<path d="M56.2898 13.0553C56.3638 13.0042 56.4224 12.9337 56.4591 12.8514C57.1556 11.7615 57.8499 10.6715 58.5419 9.58161C58.6029 9.48474 58.6672 9.38788 58.7366 9.2978C58.792 9.22043 58.8643 9.15679 58.948 9.11172C59.0316 9.06666 59.1244 9.04137 59.2192 9.03779C59.3259 9.03779 59.4326 9.02759 59.5393 9.02759H62.0793C62.1774 9.02491 62.2755 9.03174 62.3722 9.04798C62.4073 9.05112 62.4412 9.06273 62.4708 9.08184C62.5005 9.10094 62.5251 9.12697 62.5426 9.15769C62.56 9.18841 62.5698 9.22292 62.5711 9.25827C62.5724 9.29362 62.5652 9.32875 62.55 9.36068C62.5083 9.48632 62.4459 9.60406 62.3655 9.70907L58.6181 15.2816C58.5969 15.3169 58.5738 15.351 58.5487 15.3836C58.4505 15.4856 58.4708 15.5722 58.5487 15.6844C59.0482 16.4186 59.541 17.1595 60.0371 17.8937L62.4721 21.5221C62.5348 21.6088 62.5887 21.7016 62.633 21.7991C62.652 21.8338 62.6624 21.8726 62.6632 21.9122C62.6639 21.9519 62.6551 21.9911 62.6375 22.0265C62.6198 22.0619 62.5938 22.0926 62.5618 22.1157C62.5298 22.1388 62.4926 22.1538 62.4535 22.1594C62.358 22.1847 62.2592 22.1951 62.1606 22.19C61.2648 22.19 60.369 22.1815 59.4732 22.19C59.2929 22.2016 59.1129 22.1618 58.9541 22.0752C58.7953 21.9886 58.6642 21.8587 58.5758 21.7005C57.8476 20.5449 57.1026 19.4011 56.3626 18.2523C56.3236 18.1894 56.2813 18.1299 56.2288 18.0518C56.1667 18.1046 56.1165 18.1701 56.0815 18.2438C55.3477 19.3858 54.6139 20.529 53.8802 21.6733C53.8231 21.7642 53.7615 21.8521 53.6956 21.9367C53.6489 21.9999 53.5895 22.0526 53.5212 22.0912C53.453 22.1299 53.3774 22.1537 53.2993 22.1611C53.1944 22.1713 53.0877 22.1849 52.981 22.1849H50.3919C50.2846 22.1907 50.1772 22.1792 50.0735 22.1509C50.0393 22.1441 50.0071 22.1297 49.9791 22.1088C49.9512 22.0879 49.9283 22.061 49.912 22.03C49.8958 21.9991 49.8867 21.9649 49.8853 21.9299C49.884 21.8949 49.8904 21.8601 49.9042 21.828C49.9444 21.711 50.0052 21.6022 50.0837 21.5068L53.9242 15.8187C53.9428 15.7915 53.9631 15.7643 53.9801 15.7371C54.1189 15.5213 54.1189 15.5926 53.9801 15.3785L50.1802 9.69208C50.1157 9.60499 50.059 9.51228 50.0109 9.41507C49.9891 9.37954 49.9767 9.33899 49.9749 9.29729C49.9731 9.25559 49.9819 9.21412 50.0006 9.17683C50.0192 9.13953 50.0471 9.10764 50.0815 9.0842C50.1159 9.06075 50.1557 9.04653 50.1972 9.04288C50.3022 9.02386 50.4089 9.01589 50.5155 9.01909C51.3859 9.01909 52.2579 9.03778 53.1283 9.01059C53.3326 8.99429 53.537 9.03921 53.7158 9.13966C53.8945 9.2401 54.0396 9.39156 54.1325 9.57482C54.7844 10.6523 55.46 11.7144 56.1255 12.7834L56.2898 13.0553Z" fill="black"/>
<path d="M123.471 16.5035C123.495 16.588 123.538 16.6663 123.595 16.733L126.749 21.4915C126.841 21.6182 126.918 21.7558 126.976 21.9011C127.03 22.0574 126.995 22.1407 126.832 22.1696C126.508 22.2274 126.176 22.2274 125.852 22.1696C125.739 22.1406 125.641 22.0711 125.576 21.9741C125.476 21.8433 125.378 21.7107 125.288 21.5731C124.335 20.1217 123.38 18.6721 122.438 17.2122C122.376 17.1013 122.284 17.0103 122.173 16.9501C122.061 16.8899 121.935 16.8629 121.808 16.8723C120.865 16.8825 119.92 16.8723 118.975 16.8723C118.665 16.8723 118.637 16.8927 118.637 17.2122V21.6172C118.637 21.7005 118.637 21.7872 118.637 21.8654C118.625 22.1033 118.56 22.1815 118.33 22.1951C118.125 22.2078 117.92 22.2078 117.715 22.1951C117.509 22.1798 117.448 22.1067 117.429 21.896C117.429 21.8144 117.429 21.726 117.429 21.6495V9.58331C117.429 9.05987 117.45 9.03778 117.971 9.04118C119.236 9.04118 120.501 9.01059 121.766 9.06327C122.548 9.08292 123.319 9.24652 124.042 9.54592C125.324 10.0982 126.008 11.0754 126.136 12.469C126.194 13.0197 126.152 13.5763 126.014 14.1124C125.897 14.5606 125.683 14.9776 125.389 15.3348C125.094 15.6919 124.726 15.9805 124.309 16.1806C124.04 16.3136 123.76 16.4217 123.471 16.5035V16.5035ZM118.645 12.9585V15.3802C118.645 15.6776 118.667 15.698 118.97 15.698H121.016C121.434 15.7045 121.852 15.6813 122.267 15.6283C122.765 15.5699 123.248 15.4195 123.691 15.1848C124.184 14.9242 124.555 14.4781 124.721 13.9441C124.903 13.3673 124.919 12.7506 124.768 12.1648C124.567 11.3627 124.021 10.8732 123.276 10.5826C122.667 10.3582 122.022 10.2431 121.373 10.2427C120.552 10.2257 119.731 10.2427 118.909 10.2342H118.836C118.812 10.2314 118.787 10.2341 118.763 10.2421C118.739 10.2502 118.718 10.2633 118.7 10.2807C118.682 10.2981 118.668 10.3192 118.659 10.3426C118.65 10.366 118.647 10.3911 118.648 10.416C118.648 10.4806 118.648 10.5469 118.648 10.6132L118.645 12.9585Z" fill="black"/>
<path d="M91.1013 17.5079C90.2293 17.5079 89.3589 17.5164 88.4885 17.5079C88.3872 17.497 88.2852 17.5217 88.2 17.5778C88.1147 17.6339 88.0515 17.7179 88.0212 17.8155C87.4657 19.0539 86.9047 20.29 86.338 21.5238C86.277 21.658 86.211 21.7906 86.1399 21.9198C86.1007 21.998 86.0415 22.0642 85.9682 22.1118C85.895 22.1593 85.8104 22.1863 85.7233 22.19C85.5193 22.2112 85.3135 22.2078 85.1103 22.1798C84.8953 22.1407 84.8394 22.0387 84.9054 21.8263C84.9391 21.7246 84.9781 21.6247 85.0223 21.5272C86.8556 17.5448 88.69 13.5623 90.5256 9.57992C90.6012 9.41564 90.6825 9.25419 90.7694 9.09557C90.8079 9.02283 90.8563 8.95589 90.9134 8.89673C90.9353 8.8662 90.9642 8.84134 90.9976 8.82419C91.031 8.80704 91.068 8.7981 91.1056 8.7981C91.1431 8.7981 91.1801 8.80704 91.2135 8.82419C91.2469 8.84134 91.2758 8.8662 91.2978 8.89673C91.391 9.00188 91.467 9.12119 91.523 9.25022C91.7346 9.69548 91.9463 10.1407 92.1546 10.5894C93.8265 14.1934 95.4972 17.7985 97.1668 21.4048C97.2386 21.5438 97.2981 21.6888 97.3446 21.8382C97.3971 22.0285 97.3446 22.1339 97.1651 22.1662C96.8895 22.218 96.6063 22.2146 96.332 22.156C96.2723 22.1398 96.2168 22.1109 96.1692 22.0714C96.1216 22.0318 96.083 21.9824 96.056 21.9266C95.9832 21.7974 95.9172 21.6648 95.8562 21.5289C95.2985 20.3109 94.7426 19.0907 94.1883 17.8682C94.1612 17.8087 94.1341 17.7493 94.1053 17.6898C94.0823 17.632 94.0414 17.5831 93.9887 17.5504C93.936 17.5177 93.8741 17.5028 93.8124 17.5079H91.1013V17.5079ZM91.1115 11.1179C91.0488 11.1666 91.005 11.2357 90.9879 11.3134C90.2733 12.8758 89.5587 14.441 88.8441 16.009C88.7019 16.3217 88.712 16.3489 89.0456 16.3489H93.1333C93.472 16.3489 93.4821 16.3302 93.3416 16.0209L91.7617 12.5642L91.1115 11.1179Z" fill="black"/>
<path d="M107.838 15.5774C107.838 13.5652 107.838 11.553 107.838 9.54085C107.838 9.0633 107.872 9.03101 108.336 9.03101H114.794C115.267 9.03101 115.292 9.0565 115.291 9.54085C115.291 9.6802 115.291 9.82126 115.291 9.96061C115.293 9.99606 115.288 10.0317 115.276 10.0651C115.264 10.0985 115.245 10.129 115.221 10.1545C115.196 10.1801 115.166 10.2001 115.133 10.2132C115.101 10.2264 115.065 10.2324 115.03 10.2308C114.948 10.2351 114.866 10.2351 114.784 10.2308H109.454C109.388 10.2308 109.322 10.2308 109.257 10.2308C109.103 10.241 109.074 10.2716 109.063 10.4246C109.063 10.4739 109.063 10.5231 109.063 10.5724V14.6324C109.063 14.6817 109.063 14.731 109.063 14.7803C109.063 14.9044 109.129 14.9604 109.244 14.9672C109.31 14.9672 109.376 14.9672 109.44 14.9672H114.149C114.63 14.9672 114.657 14.9927 114.657 15.4669C114.657 15.5994 114.657 15.732 114.657 15.8629C114.642 16.0583 114.579 16.1229 114.383 16.1467C114.293 16.1518 114.202 16.1518 114.112 16.1467H109.447C109.381 16.1467 109.315 16.1467 109.25 16.1467C109.098 16.1603 109.081 16.1875 109.063 16.3472C109.063 16.3795 109.063 16.4135 109.063 16.4458V20.6775C109.063 20.7267 109.063 20.776 109.063 20.8253C109.063 20.844 109.066 20.8626 109.074 20.8798C109.081 20.8971 109.092 20.9127 109.105 20.9257C109.118 20.9387 109.134 20.9489 109.152 20.9556C109.169 20.9623 109.188 20.9654 109.206 20.9647C109.279 20.9647 109.354 20.9647 109.428 20.9647H114.808C115.267 20.9647 115.316 21.0207 115.316 21.4745C115.321 21.6225 115.317 21.7706 115.304 21.9181C115.284 22.088 115.223 22.1441 115.05 22.1696C114.977 22.1781 114.904 22.1815 114.83 22.1798H108.324C107.896 22.1798 107.838 22.122 107.838 21.6988C107.837 19.6617 107.837 17.6212 107.838 15.5774Z" fill="black"/>
<path d="M65.2255 15.5858V9.60028C65.2255 9.51701 65.2255 9.43033 65.2255 9.35216C65.2391 9.09723 65.2983 9.04286 65.5642 9.02756H65.5896C66.9205 9.03606 68.2515 8.99527 69.5808 9.05135C70.3444 9.07606 71.0965 9.24559 71.7973 9.551C73.0944 10.1322 73.7718 11.1536 73.9208 12.5557C73.9933 13.1709 73.9519 13.7943 73.7988 14.3945C73.4771 15.5994 72.7117 16.4202 71.5874 16.9182C70.9451 17.1934 70.262 17.3605 69.5655 17.4127C68.6477 17.4977 67.7266 17.445 66.8071 17.4569C66.4396 17.4569 66.4363 17.4569 66.4363 17.8291C66.4363 19.1139 66.4363 20.3998 66.4363 21.6869C66.4363 22.1526 66.3905 22.1967 65.9283 22.1967C65.7877 22.1967 65.6472 22.1967 65.5083 22.1967C65.3 22.178 65.2374 22.1084 65.2221 21.901C65.2221 21.811 65.2221 21.7209 65.2221 21.6291L65.2255 15.5858ZM66.4379 13.2235C66.4379 14.139 66.4379 15.0539 66.4379 15.9682C66.4379 16.2027 66.4701 16.2452 66.6818 16.2452C67.608 16.2452 68.5444 16.2826 69.4639 16.2112C70.0799 16.1752 70.6815 16.0102 71.2301 15.7269C71.5652 15.5581 71.859 15.317 72.0902 15.0208C72.3215 14.7246 72.4846 14.3807 72.5678 14.0138C72.6512 13.6352 72.6758 13.246 72.6406 12.8599C72.5593 11.7501 72.0192 10.9769 70.9744 10.5724C70.3811 10.3504 69.7534 10.2354 69.1202 10.2325C68.3158 10.2155 67.5115 10.2325 66.7072 10.224H66.6073C66.5862 10.2219 66.565 10.2241 66.5448 10.2306C66.5247 10.2371 66.5061 10.2477 66.4902 10.2618C66.4743 10.2758 66.4615 10.293 66.4525 10.3122C66.4435 10.3314 66.4385 10.3523 66.4379 10.3735C66.4337 10.4392 66.4337 10.505 66.4379 10.5707V13.2235Z" fill="black"/>
<path d="M100.762 16.0311L101.925 14.0461C102.799 12.5562 103.672 11.0664 104.545 9.57649C104.86 9.03946 104.883 9.02587 105.5 9.02757C105.623 9.02757 105.747 9.02756 105.869 9.03606C106.052 9.05646 106.108 9.14653 106.062 9.32837C106.029 9.42133 105.983 9.50894 105.925 9.58839L102.277 15.6351C102.01 16.0787 101.747 16.5256 101.473 16.9641C101.391 17.0965 101.35 17.2502 101.354 17.4059C101.354 18.8312 101.354 20.2571 101.354 21.6835C101.354 22.1407 101.304 22.1933 100.846 22.1933C100.716 22.1933 100.584 22.1933 100.454 22.1933C100.22 22.1764 100.151 22.0999 100.139 21.8704C100.139 21.7957 100.139 21.7209 100.139 21.6478C100.139 20.2627 100.139 18.8777 100.139 17.4926C100.141 17.3456 100.101 17.201 100.024 17.0762C98.5368 14.5837 97.0511 12.0911 95.5667 9.59859C95.5084 9.50936 95.4585 9.41492 95.4176 9.31647C95.3635 9.16522 95.4176 9.06835 95.587 9.05306C95.8892 9.01992 96.1941 9.01992 96.4963 9.05306C96.5573 9.064 96.6151 9.08824 96.6657 9.12407C96.7163 9.15989 96.7585 9.20643 96.7893 9.26039C96.8773 9.38955 96.9586 9.52381 97.0382 9.65807L100.62 15.7965C100.657 15.8611 100.701 15.9308 100.762 16.0311Z" fill="black"/>
<path d="M75.7072 15.6045C75.7072 13.5923 75.7072 11.5813 75.7072 9.57138C75.7028 9.46402 75.7084 9.35647 75.7242 9.25019C75.7292 9.19217 75.7556 9.13811 75.7982 9.09853C75.8407 9.05895 75.8964 9.03668 75.9545 9.03605C76.2001 9.01565 76.4471 9.01565 76.6928 9.03605C76.8418 9.04965 76.9044 9.12272 76.9214 9.27907C76.9265 9.36964 76.9265 9.46042 76.9214 9.55099V20.5533C76.9214 20.6196 76.9214 20.6859 76.9214 20.7522C76.9315 20.9357 76.9603 20.9663 77.1381 20.9748C77.2041 20.9748 77.2702 20.9748 77.3362 20.9748H82.8548C83.3205 20.9748 83.3628 21.0258 83.3628 21.5033C83.3628 21.6257 83.3628 21.7498 83.3628 21.8738C83.3492 22.0897 83.2747 22.1627 83.058 22.1848C82.9926 22.1882 82.927 22.1882 82.8616 22.1848H76.2203C75.7631 22.1848 75.7123 22.1322 75.7123 21.675C75.7078 19.656 75.7061 17.6325 75.7072 15.6045Z" fill="black"/>
<path d="M10.6951 15.8832V9.4507C10.69 9.36864 10.69 9.28634 10.6951 9.20428C10.6983 9.15877 10.7125 9.11473 10.7364 9.07592C10.7603 9.03712 10.7932 9.00472 10.8324 8.9815C10.8715 8.95827 10.9156 8.94491 10.961 8.94257C11.0064 8.94023 11.0517 8.94897 11.093 8.96805C11.1757 9.00444 11.2555 9.04704 11.3318 9.09551L22.5823 15.5535C22.6333 15.5792 22.682 15.6094 22.7279 15.6436C22.7647 15.6705 22.7945 15.7058 22.8151 15.7466C22.8357 15.7873 22.8465 15.8324 22.8465 15.8781C22.8465 15.9238 22.8357 15.9688 22.8151 16.0096C22.7945 16.0503 22.7647 16.0856 22.7279 16.1126C22.6625 16.1623 22.5928 16.2061 22.5196 16.2435L12.7339 21.8619L11.237 22.7117C11.1695 22.7625 11.0902 22.7953 11.0067 22.8068C10.9697 22.8123 10.9321 22.8101 10.8961 22.8003C10.8601 22.7904 10.8265 22.7733 10.7974 22.7498C10.7683 22.7264 10.7443 22.6971 10.727 22.664C10.7097 22.6308 10.6994 22.5944 10.6968 22.557C10.6917 22.4749 10.6917 22.3926 10.6968 22.3106L10.6951 15.8832Z" fill="white"/>
</g>
<defs>
<clipPath id="clip0_63_406">
<rect width="127" height="31" fill="white"/>
</clipPath>
</defs>
</svg>
