<svg width="297" height="72" viewBox="0 0 297 72" fill="none" xmlns="http://www.w3.org/2000/svg">
<g clip-path="url(#clip0_7_2)">
<path d="M72.2096 36.0527C72.2086 40.7855 71.2701 45.4715 69.4479 49.8418C67.6257 54.2122 64.9557 58.1809 61.5911 61.5203C58.2265 64.8598 54.2334 67.5041 49.8411 69.3017C45.4487 71.0993 40.7435 72.0147 35.9954 71.9955C15.7044 71.9363 -0.119783 55.3977 -0.00098342 35.7685C0.117817 16.3012 15.9816 -0.0873903 36.2766 -0.000552937C45.8362 0.0370682 54.99 3.85516 61.7274 10.6151C68.4648 17.3751 72.2349 26.5241 72.2096 36.0527ZM25.0104 36.8895V51.8256C24.9984 52.0161 24.9984 52.2073 25.0104 52.3979C25.0175 52.4843 25.0424 52.5684 25.0836 52.6449C25.1248 52.7213 25.1813 52.7885 25.2497 52.8422C25.318 52.8959 25.3968 52.935 25.481 52.957C25.5652 52.979 25.653 52.9835 25.739 52.9702C25.9296 52.9438 26.1106 52.8706 26.2657 52.7571L29.7663 50.7835L52.6749 37.7303C52.846 37.6435 53.009 37.5418 53.162 37.4263C53.2479 37.3637 53.3178 37.2817 53.366 37.187C53.4142 37.0924 53.4393 36.9878 53.4393 36.8816C53.4393 36.7755 53.4142 36.6709 53.366 36.5762C53.3178 36.4816 53.2479 36.3996 53.162 36.3369C53.0548 36.2575 52.9408 36.1875 52.8215 36.1277L26.531 21.1246C26.3527 21.012 26.166 20.9131 25.9727 20.8286C25.8743 20.7805 25.7653 20.7576 25.6558 20.7622C25.5463 20.7667 25.4397 20.7985 25.3456 20.8546C25.2516 20.9106 25.1731 20.9893 25.1173 21.0833C25.0615 21.1774 25.0302 21.2838 25.0262 21.393C25.0144 21.5836 25.0144 21.7748 25.0262 21.9654L25.0104 36.8895Z" fill="#3B8BEF"/>
<path d="M105.554 37.2414C105.336 37.4782 105.213 37.6124 105.094 37.7506C103.231 39.8557 101.368 41.9727 99.5069 44.1015C99.1722 44.4969 98.8039 44.8628 98.406 45.1949C98.3035 45.298 98.1812 45.3794 98.0465 45.4344C97.9117 45.4893 97.7673 45.5167 97.6217 45.5149C97.4761 45.5131 97.3324 45.482 97.1991 45.4237C97.0658 45.3653 96.9456 45.2808 96.8458 45.1752C96.5844 44.9508 96.3408 44.7067 96.1171 44.4449C94.1477 42.2161 92.1822 39.9794 90.2207 37.7348C90.0979 37.5966 90.0108 37.419 89.789 37.3401C89.7408 37.5026 89.7273 37.6733 89.7494 37.8414C89.7494 41.9201 89.7494 45.9988 89.7494 50.0775C89.7494 51.2933 89.5198 51.5261 88.312 51.5301H83.5837C83.4294 51.538 83.2747 51.538 83.1204 51.5301C82.9849 51.5304 82.8508 51.5029 82.7263 51.4494C82.6019 51.3959 82.4898 51.3175 82.397 51.2191C82.3042 51.1207 82.2326 51.0043 82.1868 50.8772C82.1409 50.7501 82.1217 50.6149 82.1304 50.4801C82.1304 50.3459 82.1304 50.2117 82.1304 50.0854V22.4553C82.109 22.0715 82.1478 21.6866 82.2452 21.3146C82.2749 21.1574 82.3431 21.01 82.4437 20.8853C82.5443 20.7607 82.6743 20.6628 82.822 20.6003C82.9698 20.5378 83.1307 20.5127 83.2905 20.5271C83.4503 20.5416 83.6041 20.5951 83.7382 20.6831C84.1722 20.9314 84.5584 21.2549 84.8786 21.6383C85.9742 22.8198 87.0685 24.0039 88.1615 25.1907C91.1473 28.4116 94.1319 31.6351 97.1151 34.8612C97.2299 34.9876 97.3606 35.106 97.4635 35.256C97.6298 35.4691 97.7645 35.4375 97.915 35.256C98.0219 35.1218 98.1486 34.9994 98.2635 34.8612L110.167 21.9659C110.452 21.6541 110.753 21.358 111.058 21.066C111.236 20.8954 111.446 20.7613 111.676 20.6712C111.805 20.6042 111.947 20.5669 112.093 20.5621C112.238 20.5573 112.382 20.5852 112.515 20.6435C112.648 20.7019 112.767 20.7893 112.861 20.8993C112.956 21.0093 113.024 21.1391 113.062 21.2791C113.12 21.4416 113.154 21.6119 113.161 21.7843C113.161 22.108 113.193 22.4356 113.193 22.7593V49.9394C113.195 50.2254 113.182 50.5113 113.153 50.7959C113.143 50.9791 113.069 51.153 112.944 51.2878C112.819 51.4225 112.65 51.5095 112.468 51.534C112.279 51.5715 112.087 51.5913 111.894 51.5932H106.92C106.727 51.5926 106.535 51.5741 106.346 51.538C106.154 51.5123 105.976 51.4246 105.838 51.2885C105.701 51.1524 105.612 50.9752 105.585 50.7841C105.542 50.5592 105.526 50.3299 105.538 50.1012V37.2414H105.554Z" fill="white"/>
<path d="M131.638 30.322C131.811 30.2034 131.948 30.0395 132.034 29.8484C133.663 27.3169 135.287 24.7855 136.905 22.254C137.048 22.0291 137.198 21.8041 137.361 21.5949C137.49 21.4152 137.659 21.2673 137.855 21.1627C138.05 21.058 138.267 20.9993 138.489 20.991C138.739 20.991 138.988 20.9673 139.238 20.9673H145.178C145.407 20.9611 145.636 20.9769 145.863 21.0146C145.945 21.0219 146.024 21.0489 146.093 21.0933C146.163 21.1376 146.22 21.1981 146.261 21.2694C146.302 21.3408 146.325 21.421 146.328 21.5031C146.331 21.5851 146.314 21.6668 146.278 21.7409C146.181 22.0327 146.035 22.3062 145.847 22.5501L137.083 35.4928C137.034 35.5748 136.98 35.6538 136.921 35.7296C136.691 35.9665 136.739 36.1678 136.921 36.4283C138.089 38.1334 139.242 39.8544 140.402 41.5596L146.096 49.9867C146.243 50.1882 146.369 50.4038 146.472 50.6301C146.517 50.7108 146.541 50.8009 146.543 50.8929C146.545 50.9849 146.524 51.076 146.483 51.1583C146.442 51.2406 146.381 51.3117 146.306 51.3655C146.231 51.4192 146.144 51.454 146.053 51.4669C145.829 51.5258 145.598 51.5498 145.368 51.538C143.273 51.538 141.178 51.5182 139.083 51.538C138.661 51.565 138.24 51.4726 137.869 51.2715C137.498 51.0703 137.191 50.7686 136.984 50.4012C135.282 47.7171 133.539 45.0607 131.809 42.3924C131.718 42.2464 131.619 42.1082 131.496 41.9266C131.351 42.0494 131.233 42.2014 131.151 42.3727C129.435 45.0252 127.719 47.6803 126.003 50.338C125.87 50.5491 125.726 50.7533 125.572 50.9498C125.462 51.0966 125.324 51.2188 125.164 51.3086C125.004 51.3984 124.827 51.4537 124.645 51.4709C124.399 51.4946 124.15 51.5261 123.9 51.5261H117.846C117.595 51.5397 117.343 51.513 117.101 51.4472C117.021 51.4314 116.946 51.3981 116.88 51.3495C116.815 51.3009 116.761 51.2384 116.723 51.1665C116.685 51.0946 116.664 51.0151 116.661 50.9339C116.658 50.8527 116.673 50.7718 116.705 50.6972C116.799 50.4255 116.941 50.1728 117.125 49.9512L126.106 36.7401C126.15 36.6769 126.197 36.6138 126.237 36.5506C126.562 36.0493 126.562 36.2151 126.237 35.7178L117.351 22.5106C117.2 22.3083 117.067 22.093 116.955 21.8672C116.904 21.7847 116.875 21.6905 116.87 21.5937C116.866 21.4968 116.887 21.4005 116.931 21.3139C116.974 21.2273 117.039 21.1532 117.12 21.0988C117.2 21.0443 117.293 21.0113 117.39 21.0028C117.636 20.9586 117.885 20.9401 118.135 20.9475C120.17 20.9475 122.21 20.991 124.245 20.9278C124.723 20.8899 125.201 20.9943 125.619 21.2276C126.037 21.4609 126.376 21.8126 126.593 22.2383C128.118 24.7408 129.698 27.2077 131.254 29.6905L131.638 30.322Z" fill="white"/>
<path d="M288.747 38.3308C288.804 38.527 288.903 38.7087 289.036 38.8637L296.414 49.9157C296.629 50.2101 296.807 50.5295 296.945 50.8669C297.071 51.2301 296.988 51.4235 296.608 51.4906C295.85 51.6248 295.073 51.6248 294.315 51.4906C294.051 51.4234 293.822 51.2618 293.67 51.0367C293.436 50.7327 293.206 50.4249 292.996 50.1051C290.767 46.7343 288.534 43.3673 286.332 39.9767C286.187 39.719 285.972 39.5079 285.711 39.368C285.45 39.2282 285.154 39.1655 284.859 39.1873C282.653 39.211 280.443 39.1873 278.234 39.1873C277.509 39.1873 277.442 39.2347 277.442 39.9767V50.2078C277.442 50.4012 277.442 50.6025 277.442 50.784C277.414 51.3367 277.263 51.5182 276.725 51.5498C276.246 51.5794 275.766 51.5794 275.287 51.5498C274.804 51.5143 274.662 51.3446 274.618 50.8551C274.618 50.6656 274.618 50.4604 274.618 50.2828V22.258C274.618 21.0423 274.666 20.991 275.885 20.9988C278.843 20.9988 281.802 20.9278 284.76 21.0502C286.588 21.0958 288.392 21.4758 290.082 22.1712C293.08 23.454 294.679 25.7236 294.98 28.9603C295.114 30.2393 295.018 31.5319 294.695 32.7771C294.42 33.818 293.92 34.7867 293.232 35.6162C292.543 36.4456 291.682 37.116 290.708 37.5808C290.078 37.8897 289.422 38.1407 288.747 38.3308ZM277.461 30.097V35.7217C277.461 36.4125 277.513 36.4598 278.222 36.4598H283.005C283.983 36.4751 284.961 36.421 285.932 36.298C287.096 36.1623 288.225 35.813 289.262 35.2678C290.416 34.6626 291.281 33.6265 291.67 32.3864C292.096 31.0466 292.134 29.6142 291.781 28.2537C291.309 26.3907 290.034 25.2539 288.292 24.5789C286.866 24.0577 285.36 23.7904 283.841 23.7895C281.92 23.75 280 23.7895 278.079 23.7697H277.909C277.851 23.7632 277.792 23.7695 277.737 23.7881C277.682 23.8068 277.631 23.8374 277.589 23.8778C277.547 23.9181 277.515 23.9672 277.494 24.0215C277.473 24.0759 277.465 24.1341 277.469 24.1921C277.469 24.3421 277.469 24.496 277.469 24.65L277.461 30.097Z" fill="white"/>
<path d="M213.048 40.6636C211.009 40.6636 208.973 40.6833 206.938 40.6636C206.701 40.6381 206.462 40.6955 206.263 40.8258C206.064 40.956 205.916 41.1512 205.845 41.378C204.546 44.2542 203.234 47.1251 201.909 49.9907C201.766 50.3025 201.612 50.6104 201.445 50.9104C201.354 51.092 201.215 51.246 201.044 51.3563C200.873 51.4666 200.675 51.5294 200.471 51.538C199.994 51.5874 199.513 51.5794 199.038 51.5143C198.535 51.4235 198.404 51.1867 198.558 50.6933C198.637 50.4571 198.728 50.2252 198.832 49.9986C203.119 40.7491 207.409 31.4996 211.702 22.2501C211.878 21.8685 212.069 21.4936 212.272 21.1252C212.362 20.9562 212.475 20.8007 212.608 20.6633C212.66 20.5924 212.727 20.5347 212.805 20.4949C212.884 20.455 212.97 20.4343 213.058 20.4343C213.146 20.4343 213.232 20.455 213.31 20.4949C213.388 20.5347 213.456 20.5924 213.507 20.6633C213.725 20.9076 213.903 21.1847 214.034 21.4844C214.529 22.5185 215.024 23.5527 215.511 24.5947C219.421 32.9653 223.328 41.3385 227.233 49.7144C227.401 50.0371 227.54 50.3739 227.648 50.7209C227.771 51.163 227.648 51.4077 227.229 51.4827C226.584 51.6031 225.922 51.5951 225.28 51.459C225.141 51.4215 225.011 51.3544 224.9 51.2625C224.788 51.1706 224.698 51.0559 224.635 50.9262C224.465 50.6262 224.31 50.3183 224.168 50.0025C222.863 47.1737 221.563 44.3397 220.267 41.5004C220.204 41.3622 220.14 41.2241 220.073 41.0859C220.019 40.9517 219.924 40.8382 219.8 40.7622C219.677 40.6861 219.532 40.6516 219.388 40.6636H213.048ZM213.072 25.8223C212.925 25.9352 212.823 26.0958 212.783 26.2762C211.112 29.9049 209.44 33.5403 207.769 37.1822C207.437 37.9085 207.46 37.9716 208.241 37.9716H217.8C218.592 37.9716 218.616 37.9282 218.287 37.2098L214.592 29.1813L213.072 25.8223Z" fill="white"/>
<path d="M252.189 36.1796C252.189 31.5062 252.189 26.8327 252.189 22.1593C252.189 21.0502 252.268 20.9752 253.353 20.9752H268.456C269.561 20.9752 269.621 21.0344 269.617 22.1593C269.617 22.483 269.617 22.8106 269.617 23.1343C269.623 23.2166 269.611 23.2993 269.583 23.3769C269.555 23.4546 269.511 23.5254 269.453 23.5847C269.396 23.644 269.326 23.6904 269.249 23.721C269.172 23.7515 269.089 23.7654 269.007 23.7619C268.815 23.7717 268.624 23.7717 268.433 23.7619H255.966C255.812 23.7619 255.658 23.7619 255.507 23.7619C255.147 23.7855 255.079 23.8566 255.052 24.2118C255.052 24.3263 255.052 24.4408 255.052 24.5552V33.985C255.052 34.0994 255.052 34.2139 255.052 34.3284C255.052 34.6165 255.206 34.7468 255.475 34.7626C255.63 34.7626 255.784 34.7626 255.935 34.7626H266.948C268.072 34.7626 268.136 34.8218 268.136 35.923C268.136 36.2309 268.136 36.5388 268.136 36.8427C268.1 37.2966 267.953 37.4466 267.494 37.5019C267.283 37.5138 267.071 37.5138 266.86 37.5019H255.951C255.796 37.5019 255.642 37.5019 255.491 37.5019C255.135 37.5335 255.095 37.5966 255.052 37.9676C255.052 38.0426 255.052 38.1216 255.052 38.1966V48.025C255.052 48.1395 255.052 48.2539 255.052 48.3684C255.052 48.4119 255.06 48.455 255.077 48.4951C255.095 48.5351 255.12 48.5713 255.151 48.6016C255.182 48.6318 255.22 48.6554 255.26 48.6709C255.301 48.6865 255.345 48.6937 255.388 48.6921C255.559 48.6921 255.733 48.6921 255.907 48.6921H268.488C269.561 48.6921 269.676 48.8223 269.676 49.8762C269.687 50.2199 269.677 50.5638 269.648 50.9064C269.601 51.3011 269.458 51.4314 269.054 51.4906C268.883 51.5103 268.711 51.5182 268.539 51.5143H253.325C252.323 51.5143 252.189 51.3801 252.189 50.3972C252.186 45.6659 252.186 40.9267 252.189 36.1796Z" fill="white"/>
<path d="M152.535 36.1993V22.2975C152.535 22.1041 152.535 21.9027 152.535 21.7212C152.567 21.1291 152.706 21.0028 153.327 20.9673H153.387C156.499 20.987 159.612 20.8923 162.72 21.0225C164.506 21.0799 166.265 21.4737 167.904 22.183C170.937 23.5329 172.521 25.9052 172.87 29.1616C173.039 30.5905 172.943 32.0384 172.585 33.4324C171.832 36.2309 170.042 38.1374 167.413 39.2939C165.911 39.9332 164.313 40.3213 162.685 40.4425C160.538 40.6399 158.384 40.5175 156.234 40.5451C155.375 40.5451 155.367 40.5451 155.367 41.4096C155.367 44.3936 155.367 47.3803 155.367 50.3696C155.367 51.4511 155.26 51.5538 154.179 51.5538C153.85 51.5538 153.521 51.5538 153.197 51.5538C152.709 51.5103 152.563 51.3485 152.527 50.867C152.527 50.6578 152.527 50.4486 152.527 50.2354L152.535 36.1993ZM155.371 30.7128C155.371 32.839 155.371 34.9639 155.371 37.0874C155.371 37.6322 155.446 37.7308 155.941 37.7308C158.107 37.7308 160.297 37.8177 162.447 37.6519C163.888 37.5682 165.294 37.185 166.577 36.5269C167.361 36.135 168.048 35.575 168.589 34.8871C169.13 34.1992 169.511 33.4005 169.706 32.5482C169.901 31.669 169.958 30.7649 169.876 29.8681C169.686 27.2906 168.423 25.4947 165.979 24.5552C164.592 24.0398 163.124 23.7725 161.643 23.7658C159.762 23.7263 157.881 23.7658 156 23.7461H155.767C155.717 23.7412 155.668 23.7464 155.621 23.7615C155.573 23.7766 155.53 23.8012 155.493 23.8338C155.456 23.8664 155.426 23.9063 155.405 23.951C155.384 23.9956 155.372 24.0441 155.371 24.0934C155.361 24.2459 155.361 24.3988 155.371 24.5513V30.7128Z" fill="white"/>
<path d="M235.64 37.2335L238.36 32.6232C240.404 29.1629 242.446 25.7025 244.486 22.2422C245.223 20.9949 245.278 20.9633 246.72 20.9673C247.009 20.9673 247.298 20.9673 247.583 20.987C248.011 21.0344 248.142 21.2436 248.035 21.6659C247.958 21.8818 247.85 22.0853 247.714 22.2698L239.184 36.3138C238.558 37.344 237.945 38.3821 237.303 39.4005C237.112 39.708 237.015 40.0649 237.026 40.4267C237.026 43.7371 237.026 47.0487 237.026 50.3617C237.026 51.4235 236.907 51.5459 235.838 51.5459C235.533 51.5459 235.224 51.5459 234.919 51.5459C234.373 51.5064 234.21 51.3288 234.183 50.7959C234.183 50.6222 234.183 50.4485 234.183 50.2788C234.183 47.0619 234.183 43.845 234.183 40.628C234.188 40.2866 234.095 39.9507 233.913 39.661C230.436 33.8718 226.962 28.0827 223.491 22.2935C223.354 22.0863 223.238 21.8669 223.142 21.6383C223.015 21.287 223.142 21.062 223.538 21.0265C224.245 20.9495 224.958 20.9495 225.665 21.0265C225.807 21.0519 225.942 21.1082 226.061 21.1914C226.179 21.2746 226.278 21.3827 226.35 21.508C226.556 21.808 226.746 22.1198 226.932 22.4317L235.307 36.6888C235.394 36.8388 235.497 37.0006 235.64 37.2335Z" fill="white"/>
<path d="M177.048 36.2428C177.048 31.5693 177.048 26.8985 177.048 22.2304C177.037 21.981 177.05 21.7312 177.087 21.4844C177.099 21.3496 177.161 21.224 177.26 21.1321C177.36 21.0402 177.49 20.9885 177.626 20.987C178.2 20.9396 178.778 20.9396 179.352 20.987C179.701 21.0186 179.847 21.1883 179.887 21.5514C179.899 21.7618 179.899 21.9726 179.887 22.183V47.7369C179.887 47.8908 179.887 48.0447 179.887 48.1987C179.911 48.625 179.978 48.696 180.394 48.7158C180.548 48.7158 180.703 48.7158 180.857 48.7158H193.763C194.852 48.7158 194.951 48.8342 194.951 49.9433C194.951 50.2275 194.951 50.5157 194.951 50.8038C194.919 51.3051 194.745 51.4748 194.238 51.5261C194.085 51.534 193.932 51.534 193.779 51.5261H178.248C177.178 51.5261 177.06 51.4038 177.06 50.342C177.049 45.6528 177.045 40.953 177.048 36.2428Z" fill="white"/>
<path d="M25.0113 36.8901V21.9501C24.9995 21.7595 24.9995 21.5684 25.0113 21.3778C25.0189 21.2721 25.052 21.1698 25.108 21.0797C25.1639 20.9895 25.2409 20.9143 25.3324 20.8603C25.4239 20.8064 25.5271 20.7754 25.6333 20.7699C25.7395 20.7645 25.8454 20.7848 25.9419 20.8291C26.1353 20.9136 26.3219 21.0126 26.5003 21.1252L52.8105 36.1243C52.9299 36.1842 53.0438 36.2541 53.1511 36.3335C53.237 36.3962 53.3069 36.4782 53.3551 36.5728C53.4033 36.6675 53.4284 36.7721 53.4284 36.8782C53.4284 36.9844 53.4033 37.089 53.3551 37.1836C53.3069 37.2783 53.237 37.3603 53.1511 37.4229C52.9981 37.5384 52.8351 37.6401 52.664 37.7269L29.7792 50.7762L26.2785 52.7497C26.1208 52.8679 25.9354 52.9439 25.74 52.9708C25.6536 52.9835 25.5656 52.9783 25.4814 52.9555C25.3972 52.9327 25.3186 52.8929 25.2505 52.8384C25.1825 52.7839 25.1265 52.716 25.086 52.639C25.0455 52.5619 25.0214 52.4773 25.0153 52.3905C25.0033 52.2 25.0033 52.0088 25.0153 51.8182L25.0113 36.8901Z" fill="white"/>
</g>
<defs>
<clipPath id="clip0_7_2">
<rect width="297" height="72" fill="white"/>
</clipPath>
</defs>
</svg>
